<svg width="18" height="18" viewBox="0 0 18 18" fill="none" xmlns="http://www.w3.org/2000/svg">
<path d="M9 18C13.9706 18 18 13.971 18 9.00001C18 4.02901 13.9706 0 9 0C4.0294 0 0 4.02901 0 9.00001C0 13.971 4.0294 18 9 18Z" fill="#006650"/>
<mask id="mask0_200_1096" style="mask-type:luminance" maskUnits="userSpaceOnUse" x="2" y="2" width="14" height="14">
<path d="M15.1201 2.88H2.88013V15.12H15.1201V2.88Z" fill="white"/>
</mask>
<g mask="url(#mask0_200_1096)">
<path d="M9.94804 15.12V9.53699H11.8212L12.1022 7.361H9.94804V5.97201C9.94804 5.34201 10.1222 4.912 11.0265 4.912H12.178V2.965C11.9789 2.939 11.2953 2.88 10.4997 2.88C8.83844 2.88 7.70104 3.894 7.70104 5.756V7.361H5.82214V9.53699H7.70104V15.12H9.94804Z" fill="white"/>
</g>
</svg>
