<svg width="18" height="18" viewBox="0 0 18 18" fill="none" xmlns="http://www.w3.org/2000/svg">
<path d="M9 18C13.9706 18 18 13.971 18 9.00001C18 4.02901 13.9706 0 9 0C4.0294 0 0 4.02901 0 9.00001C0 13.971 4.0294 18 9 18Z" fill="#006650"/>
<mask id="mask0_200_1098" style="mask-type:luminance" maskUnits="userSpaceOnUse" x="3" y="3" width="12" height="12">
<path d="M14.3999 3.59998H3.59991V14.4H14.3999V3.59998Z" fill="white"/>
</mask>
<g mask="url(#mask0_200_1098)">
<path d="M11.6999 3.59998H6.3C4.8152 3.59998 3.6001 4.81497 3.6001 6.29997V11.7C3.6001 13.184 4.8152 14.4 6.3 14.4H11.6999C13.1849 14.4 14.3999 13.184 14.3999 11.7V6.29997C14.3999 4.81497 13.1849 3.59998 11.6999 3.59998ZM13.4999 11.7C13.4999 12.692 12.6929 13.5 11.6999 13.5H6.3C5.3076 13.5 4.5001 12.692 4.5001 11.7V6.29997C4.5001 5.30697 5.3076 4.49998 6.3 4.49998H11.6999C12.6929 4.49998 13.4999 5.30697 13.4999 6.29997V11.7Z" fill="white"/>
<path d="M11.9252 6.74997C12.2979 6.74997 12.5999 6.44797 12.5999 6.07497C12.5999 5.70197 12.2979 5.39996 11.9252 5.39996C11.5524 5.39996 11.2502 5.70197 11.2502 6.07497C11.2502 6.44797 11.5524 6.74997 11.9252 6.74997Z" fill="white"/>
<path d="M8.99983 6.29999C7.50843 6.29999 6.29993 7.508 6.29993 9C6.29993 10.491 7.50843 11.7 8.99983 11.7C10.4908 11.7 11.6998 10.491 11.6998 9C11.6998 7.508 10.4908 6.29999 8.99983 6.29999ZM8.99983 10.8C8.00583 10.8 7.19993 9.994 7.19993 9C7.19993 8.006 8.00583 7.2 8.99983 7.2C9.99383 7.2 10.7997 8.006 10.7997 9C10.7997 9.994 9.99383 10.8 8.99983 10.8Z" fill="white"/>
</g>
</svg>
