<svg width="18" height="18" viewBox="0 0 18 18" fill="none" xmlns="http://www.w3.org/2000/svg">
<path d="M9 18C13.9706 18 18 13.971 18 9.00001C18 4.02901 13.9706 0 9 0C4.0294 0 0 4.02901 0 9.00001C0 13.971 4.0294 18 9 18Z" fill="#006650"/>
<path d="M13.3199 13.32V10.156C13.3199 8.59999 12.9851 7.41199 11.1707 7.41199C10.2959 7.41199 9.71273 7.88799 9.47513 8.34099H9.45353V7.55299H7.73633V13.32H9.52913V10.458C9.52913 9.70199 9.66953 8.978 10.5983 8.978C11.5163 8.978 11.5271 9.83199 11.5271 10.501V13.309H13.3199V13.32Z" fill="white"/>
<path d="M4.82031 7.55298H6.61311V13.32H4.82031V7.55298Z" fill="white"/>
<path d="M5.71673 4.67999C5.14433 4.67999 4.67993 5.144 4.67993 5.717C4.67993 6.289 5.14433 6.76399 5.71673 6.76399C6.28913 6.76399 6.75353 6.289 6.75353 5.717C6.75353 5.144 6.28913 4.67999 5.71673 4.67999Z" fill="white"/>
</svg>
