<svg width="8" height="8" viewBox="0 0 8 8" fill="none" xmlns="http://www.w3.org/2000/svg">
<mask id="mask0_200_1100" style="mask-type:luminance" maskUnits="userSpaceOnUse" x="0" y="0" width="8" height="8">
<path d="M8 0H0V8H8V0Z" fill="white"/>
</mask>
<g mask="url(#mask0_200_1100)">
<path d="M7 3.33301C7 5.66701 4 7.66701 4 7.66701C4 7.66701 1 5.66701 1 3.33301C1 2.53801 1.3161 1.77501 1.8787 1.21201C2.4413 0.649013 3.2044 0.333008 4 0.333008C4.7956 0.333008 5.5587 0.649013 6.1213 1.21201C6.6839 1.77501 7 2.53801 7 3.33301Z" stroke="#006650" stroke-linecap="round" stroke-linejoin="round"/>
<path d="M4 4.33301C4.5523 4.33301 5 3.88601 5 3.33301C5 2.78101 4.5523 2.33301 4 2.33301C3.4477 2.33301 3 2.78101 3 3.33301C3 3.88601 3.4477 4.33301 4 4.33301Z" stroke="#006650" stroke-linecap="round" stroke-linejoin="round"/>
</g>
</svg>
