<svg width="88" height="68" viewBox="0 0 88 68" fill="none" xmlns="http://www.w3.org/2000/svg">
<mask id="mask0_153_1880" style="mask-type:luminance" maskUnits="userSpaceOnUse" x="0" y="0" width="88" height="68">
<path d="M87.1795 0H0V67.3653H87.1795V0Z" fill="white"/>
</mask>
<g mask="url(#mask0_153_1880)">
<path d="M0.393066 5.25835V3.43607C3.16527 3.33184 6.02555 3.57683 8.78925 3.44439C16.1347 3.09179 23.5024 0.0961117 30.9328 0.999776C33.205 1.27615 35.5892 2.19476 37.8395 2.69456C44.3406 4.13454 50.9545 4.3431 57.5272 3.21929C64.0139 2.11201 68.9566 -0.666981 75.8596 0.148979C78.7149 0.486627 81.3436 1.58896 84.065 2.3967C84.6254 2.56389 86.8706 2.94291 87.0685 3.26898C87.2215 3.86479 87.3363 5.28319 86.5579 5.42395C80.0029 5.42395 73.4489 5.42218 66.8949 5.43058C60.8691 5.4388 54.3961 4.96376 48.4805 6.46333C45.1068 7.31908 42.2395 8.90299 38.6123 9.07177C32.6794 9.34656 27.2539 5.53818 21.3199 5.26012H0.393066V5.25835Z" fill="#006650"/>
<path d="M86.9825 14.5252L87.081 16.3575L86.7262 16.5114L49.9579 16.6785C42.6496 17.3174 39.8965 21.8607 32.0784 20.237C25.8254 18.9395 20.0677 15.861 13.1932 16.5048L0.391357 16.5131V14.5252C3.2567 14.4011 6.26787 14.6958 9.11791 14.5252C14.4708 14.2041 20.0728 12.2858 25.3798 12.0376C30.4414 11.7993 35.469 15.0549 40.9676 15.3628C49.5091 15.8428 54.2553 12.8751 61.8938 11.4567C68.9241 10.1508 70.543 11.9615 76.5557 13.7026C79.9504 14.6842 83.4693 14.5335 86.9815 14.5269L86.9825 14.5252Z" fill="#006650"/>
<path d="M86.9662 27.9169C84.3328 28.0708 81.5502 27.7613 78.9358 27.9334C71.8846 28.3969 64.4442 31.7965 57.3294 29.8352C51.3699 28.1933 49.694 26.7517 42.8345 27.0975C36.0464 27.4402 30.7632 30.1232 24.4954 31.1973C18.5647 32.2136 15.5654 30.3168 10.3108 28.756C7.19476 27.8308 3.88028 27.5296 0.642199 27.8904C0.272808 27.8275 0.289731 26.1988 0.554129 26.0185L36.401 25.9439C43.9277 25.7089 46.9219 20.7287 54.7962 22.2134C59.8148 23.1601 64.0581 25.2538 69.4462 25.7785C75.1989 26.3379 81.0921 25.6858 86.8725 25.9705L87.1192 26.318L86.9672 27.9153L86.9662 27.9169Z" fill="#006650"/>
<path d="M3.27543 46.6346L6.32379 46.969C5.30875 48.5479 3.65161 46.992 2.50442 46.9593C2.10624 46.9474 1.30473 47.3628 1.2421 47.2981C1.20136 47.2573 1.15566 46.7475 1.4539 46.7586L2.93482 45.8945C1.73006 45.4829 0.376233 44.7183 0.0949106 43.3725C-0.46085 40.711 1.54025 38.9731 4.19723 39.3654C6.82543 39.7527 7.59462 43.4186 5.48336 45.0689C5.23933 45.2592 2.90948 46.3269 3.27715 46.6361L3.27543 46.6346ZM3.06018 39.7113C0.760827 40.1731 1.00658 45.4895 3.52624 45.3201C6.04591 45.1515 5.78161 39.1651 3.06018 39.7113Z" fill="#006650"/>
<path d="M29.5399 39.3522C31.0408 39.5507 35.3024 38.8324 34.3789 41.5154C34.2047 42.0202 33.6045 41.9742 33.6068 42.4951C34.9213 42.5485 35.2416 44.3126 34.2778 45.0556C34.1385 45.1619 33.1017 45.6419 33.0134 45.6419H29.5399V39.3522ZM30.8956 42.1658C33.8068 42.6296 33.781 39.4746 30.8956 39.8487V42.1658ZM30.8956 45.1448C34.3135 45.7095 34.3066 42.0566 30.8956 42.6622V45.1448Z" fill="#006650"/>
<path d="M35.555 50.2756C37.3648 50.63 37.2682 53.2055 35.6486 53.8326L37.1647 56.3999L35.6669 56.3731C35.5436 56.2973 34.5318 54.2019 34.1926 53.9121C33.9118 53.6721 33.571 53.9552 33.2675 53.7501L33.1929 56.2446L31.743 56.3999V50.2756C32.8613 50.4264 34.5128 50.072 35.555 50.2756ZM33.266 50.607L33.1694 53.2619C36.194 54.2286 36.3043 50.2095 33.266 50.607Z" fill="#006650"/>
<path d="M15.1367 39.5175C16.4161 39.3819 19.7559 39.0343 20.1778 40.6348C20.4624 41.714 19.9456 42.4288 19.0204 42.9275L20.3896 45.6418C19.9999 45.5965 19.3611 45.7607 19.0323 45.5623C18.7036 45.3632 17.8326 43.2677 17.514 43.0746C17.2361 42.9059 16.494 42.9869 16.494 43.2433V45.6433H15.1384V39.5193L15.1367 39.5175ZM16.7685 39.8718C16.2449 40.0423 16.5601 41.8842 16.5143 42.391C16.6922 42.9207 17.892 42.6659 18.2732 42.3345C19.4322 41.3316 18.3562 39.3537 16.7685 39.8718Z" fill="#006650"/>
<path d="M48.6874 42.4964C48.5672 43.8125 49.2124 44.8141 47.7198 45.4412C42.0075 47.8399 40.8284 38.5064 46.8929 39.367C48.7856 39.6352 48.8199 41.517 48.0956 41.3382C47.8316 41.272 47.6947 39.5308 46.0759 39.6864C43.8211 39.9049 43.7717 43.6987 45.3053 44.8898C45.8766 45.3335 47.1485 45.6612 47.3265 44.7264C47.3981 44.3519 47.4535 42.9787 47.0542 42.8509C46.6944 42.7038 45.8408 43.1139 45.9762 42.4964H48.6874Z" fill="#006650"/>
<path d="M1.75033 61.0344V63.7651L2.17394 64.02C2.76536 64.0147 4.60554 60.9549 5.64764 61.0359L3.44305 63.5965L5.98652 67.1564C5.48498 67.0985 4.74103 67.2902 4.29036 67.0769C3.83969 66.8637 2.60769 64.4368 2.1705 64.3462L1.74861 64.5944V67.1594H0.394775V61.0359H1.75033V61.0344Z" fill="#006650"/>
<path d="M29.0317 61.0344V64.0133C29.2957 64.0579 29.4228 63.9888 29.6327 63.8558C30.4718 63.3268 31.3649 61.845 32.0693 61.2707C32.2983 61.0857 32.4338 60.9779 32.7578 61.0344C33.0727 61.3153 30.5364 63.1446 30.5783 63.5697L33.0963 67.1549C32.6863 67.0784 31.7361 67.2887 31.4379 67.12C30.9412 66.8406 30.0359 64.4324 29.0295 64.3425V67.1564H27.6725L27.5115 61.4297L27.7843 61.0574L29.0295 61.0322L29.0317 61.0344Z" fill="#006650"/>
<path d="M17.1701 67.1579C16.9379 67.2011 16.7617 67.1023 16.6906 66.8816C16.5821 66.5494 16.5719 61.9216 16.6618 61.4483C16.7753 60.8501 17.4869 61.0025 17.9835 61.0708C19.1306 62.4492 20.1456 63.9658 21.3589 65.2914C21.4588 65.4006 21.3453 65.6072 21.7469 65.5031V61.0344H22.0858V67.1579L21.069 67.0755C19.8745 65.7097 18.8443 64.159 17.6514 62.7999C17.4988 62.6268 17.4869 62.4559 17.1701 62.5258V67.1594V67.1579Z" fill="#006650"/>
<path d="M75.7994 54.7444V50.2756H76.3072V56.3999L75.1941 56.2461C74.0113 54.9696 73.0053 53.3415 71.8205 52.0946C71.6522 51.9178 71.2258 51.5871 71.2258 52.0137V56.3999H70.8863V50.2756L72.1696 50.4302L75.7994 54.7444Z" fill="#006650"/>
<path d="M12.7645 54.7444V50.2756L13.2762 50.3633L13.2728 55.986C13.2373 56.524 12.5391 56.4594 12.1223 56.3635C11.0971 55.1568 10.2482 53.7383 9.19757 52.5598C8.96377 52.2968 8.55708 51.7803 8.18941 51.767V56.4014H7.85052V50.2779L9.13321 50.4317L12.7645 54.7466V54.7444Z" fill="#006650"/>
<path d="M45.9253 61.4119C46.2068 61.7463 46.1436 62.2857 46.1436 62.6892H45.637C45.9572 60.8472 42.3498 60.8955 43.1821 62.6863C43.6628 63.7221 46.4373 63.3015 46.4966 65.2528C46.578 67.8862 41.6112 68.1545 41.5686 65.5033C42.2639 66.4781 43.8059 67.5585 44.9493 66.5739C46.6305 65.1272 42.6937 64.3812 42.0722 63.6032C40.3149 61.4096 44.6785 59.9317 45.9238 61.4119H45.9253Z" fill="#006650"/>
<path d="M42.2487 51.7669C42.4244 50.1173 39.4134 49.9843 39.7048 51.6762C39.895 52.7752 42.8771 52.5665 43.1038 54.1574C43.5092 57.0055 38.8901 57.4774 38.1819 54.9137C38.7303 55.0297 38.8118 55.5342 39.3861 55.804C40.2967 56.2327 41.9399 56.3055 41.9231 54.9896C41.9041 53.6327 38.1446 53.7316 38.3529 51.7008C38.5614 49.67 42.8094 49.5771 42.9007 51.3879L42.2487 51.7691V51.7669Z" fill="#006650"/>
<path d="M86.643 54.5794V50.2756H86.9825V56.3999L86.0014 56.3635C84.8998 55.0081 83.7935 53.2434 82.5733 52.0173C82.4108 51.8531 82.3515 51.706 82.0684 51.7655V56.3999H81.7299V50.2756C82.165 50.289 82.6096 50.1716 83.0122 50.4301C83.6338 50.827 85.2919 53.4938 86.0473 54.2495C86.2252 54.4286 86.3428 54.6352 86.643 54.5794Z" fill="#006650"/>
<path d="M39.4948 39.5606L42.0775 45.6419C40.1977 46.0074 40.6115 44.852 39.7626 43.8488L36.9768 43.9254C36.7783 44.164 36.3484 46.1301 35.809 45.6419C35.5923 45.4465 37.9543 40.9642 38.0715 40.3071L38.0122 39.3538L39.4948 39.5606ZM39.5374 43.49C39.7778 43.2499 38.5865 41.095 38.4359 40.6779C38.1711 41.042 37.1137 43.273 37.3328 43.49H39.5351H39.5374Z" fill="#006650"/>
<path d="M11.0242 39.5606L13.7794 45.6396C12.1832 45.9094 12.0291 45.1849 11.5952 43.9217L8.80952 43.8459C8.20633 44.048 8.32663 45.6151 7.51154 45.6381L9.68562 40.3833L9.61945 39.511C9.85841 39.1618 10.6751 39.4316 11.026 39.5574L11.0242 39.5606ZM10.2193 40.8417C9.82284 40.7556 9.9483 40.8981 9.84321 41.0553C9.41788 41.6896 9.32971 42.4987 8.93995 43.1526C8.80952 43.6898 11.1665 43.5978 11.2395 43.2366L10.2193 40.8417Z" fill="#006650"/>
<path d="M25.4443 39.5458C25.734 39.7147 27.7115 44.8899 28.0131 45.6396C26.1254 46.0238 26.6422 44.8044 25.6984 43.8459L22.911 43.9172C22.845 44.0116 22.3044 46.0766 21.9146 45.6381C21.874 45.3655 21.9943 45.1352 22.0774 44.8884C22.4636 43.7233 23.9717 41.1397 24.0836 40.2228C24.1209 39.9199 23.9192 39.6533 23.948 39.3522L25.4443 39.5458ZM23.2703 43.49C23.6514 43.4372 25.6137 43.6668 25.6374 43.2433L24.37 40.6778C24.1904 41.0635 23.077 43.3094 23.2703 43.49Z" fill="#006650"/>
<path d="M40.7219 67.1579L39.2172 67.1401L38.5379 65.44L35.806 65.4184C35.215 65.7067 35.4165 67.34 34.4534 67.1579C34.9776 65.6109 35.9194 64.0995 36.4466 62.5703C36.636 62.0204 36.8399 61.6318 36.6566 61.0359L38.1019 61.1964L40.7234 67.1579H40.7219ZM38.1803 65.0068C38.3644 64.8329 37.2803 62.7256 37.0803 62.36C36.741 62.6216 35.8266 64.867 35.9787 65.0068H38.1803Z" fill="#006650"/>
<path d="M29.6244 50.2756C29.7886 50.2608 30.0906 49.9895 30.3873 50.1122V50.607H27.4217L27.1862 50.8686L27.2404 52.7634C27.6369 53.2903 29.8175 52.3896 29.8807 53.421H27.4234L27.2099 53.6625L27.3387 56.0685H30.3889V56.3999H25.8136V50.2756C27.0472 50.1947 28.4079 50.3848 29.6259 50.2756H29.6244Z" fill="#006650"/>
<path d="M1.75033 50.2756V54.3312C1.75033 54.6121 2.31288 55.4666 2.60434 55.6487C3.81923 56.4081 5.47819 55.5179 5.47819 54.1655V51.1858C5.47819 50.9778 5.30368 50.6219 5.47982 50.2756H5.81708V54.6619C5.81708 54.7184 5.46796 55.4563 5.3883 55.567C4.07177 57.3711 0.394775 56.5374 0.394775 54.4962V50.2756H1.75033Z" fill="#006650"/>
<path d="M58.6851 53.421H56.2279C55.8164 53.9984 55.811 55.4711 56.2279 56.0685H59.1932V56.3999H54.6182V50.2756H58.431C58.6083 50.2756 58.8966 49.8669 59.1894 50.3589L58.9391 50.607H56.2279C55.7616 51.1116 55.9753 52.1117 56.0484 52.7686C56.4143 53.2836 58.6425 52.3948 58.6851 53.421Z" fill="#006650"/>
<path d="M21.9114 55.2415C22.1146 55.0877 23.3821 51.2356 23.8124 50.5587C24.0141 50.2444 24.065 50.2325 24.4546 50.2779L21.8927 56.3784L20.6404 56.2342L18.1851 50.2756C18.6105 50.3187 19.3239 50.127 19.6306 50.4346C20.0085 50.8159 21.098 54.0563 21.5402 54.8589C21.6012 54.9695 21.8028 55.321 21.9114 55.2393V55.2415Z" fill="#006650"/>
<path d="M52.5004 50.2756C52.6646 50.2608 52.9658 49.9895 53.2626 50.1122V50.607H51.2291V56.3999H49.7039V50.607H47.6727V50.2756C49.233 50.1731 50.9613 50.4154 52.5018 50.2756H52.5004Z" fill="#006650"/>
<path d="M65.2082 50.2756C65.3726 50.2608 65.6748 49.9895 65.9712 50.1122V50.607H63.9379V56.3999H62.5823V50.8552C62.2855 50.3292 60.5656 50.7675 60.3807 50.6055V50.2756C61.9417 50.1731 63.6701 50.4154 65.2082 50.2756Z" fill="#006650"/>
<path d="M8.86718 61.0344V66.5791L9.12135 66.8273H11.9172V67.158H7.51154V61.0344H8.86718Z" fill="#006650"/>
<path d="M14.7978 61.0344H13.2728V67.158H14.7978V61.0344Z" fill="#006650"/>
<path d="M25.6425 61.0344V67.1579H24.1176V61.2826C24.4784 60.8509 25.1308 61.0805 25.6425 61.0344Z" fill="#006650"/>
<path d="M16.6618 50.2756H15.3062V56.3999H16.6618V50.2756Z" fill="#006650"/>
<path d="M46.1459 50.2756H44.7903V56.3999H46.1459V50.2756Z" fill="#006650"/>
<path d="M68.8514 50.2756H67.4955V56.3999H68.8514V50.2756Z" fill="#006650"/>
<path d="M79.696 50.2756H78.341V56.3999H79.696V50.2756Z" fill="#006650"/>
<path d="M49.535 61.0344H48.1793V67.158H49.535V61.0344Z" fill="#006650"/>
<path d="M46.9948 37.2022L47.3319 37.2849C47.5183 38.9434 45.2947 39.3488 44.8237 37.745C44.7629 37.5348 44.6412 37.1194 45.0406 37.2022C45.573 38.2531 46.6015 38.4104 46.9948 37.2022Z" fill="#006650"/>
<path d="M25.6424 59.2139L25.4831 60.301L24.1157 60.3738V59.2139H25.6424Z" fill="#006650"/>
<path d="M14.7978 59.2139L14.6385 60.301C14.3336 60.4102 13.5286 60.4778 13.3457 60.2186L13.2711 59.2139H14.7978Z" fill="#006650"/>
<path d="M79.696 48.4551H78.1699V49.4501H79.696V48.4551Z" fill="#006650"/>
<path d="M68.8514 48.4551H67.3243V49.4501H68.8514V48.4551Z" fill="#006650"/>
<path d="M46.3148 48.4551H44.788V49.4501H46.3148V48.4551Z" fill="#006650"/>
<path d="M16.6618 48.4551H15.135V49.4501H16.6618V48.4551Z" fill="#006650"/>
</g>
</svg>
