<svg width="105" height="88" viewBox="0 0 105 88" fill="none" xmlns="http://www.w3.org/2000/svg">
<path d="M2.11136 76.2467L2.17047 71.1828L0 71.1614L0.0135728 69.9846L5.92427 70.0435L5.90972 71.2203L3.74019 71.1989L3.68111 76.2618L2.11136 76.2467ZM6.69555 76.2922L6.76821 70.0515L8.33796 70.0666L8.26527 76.3073L6.69555 76.2922ZM7.55987 69.5068C7.32054 69.5041 7.1248 69.431 6.97074 69.2865C6.82442 69.1421 6.75176 68.9611 6.75467 68.7409C6.7566 68.527 6.83314 68.3496 6.98333 68.2087C7.14031 68.0669 7.33798 67.9974 7.57732 68.0001C7.80987 68.0027 8.00268 68.0759 8.15577 68.2194C8.30887 68.3638 8.38446 68.543 8.38252 68.757C8.37961 68.9772 8.30015 69.1573 8.14318 69.2981C7.98717 69.439 7.79242 69.5085 7.55987 69.5068ZM9.87473 76.3234L9.94739 70.0827L13.2613 70.1157C14.114 70.1237 14.7515 70.2788 15.175 70.5801C15.6042 70.8815 15.8155 71.2755 15.8096 71.7632C15.8058 72.0904 15.7157 72.3748 15.5383 72.6164C15.361 72.8527 15.1197 73.0345 14.8145 73.162C14.5103 73.2895 14.1605 73.3519 13.7661 73.3474L13.955 72.9846C14.3814 72.9882 14.7583 73.0577 15.0858 73.1914C15.4143 73.3198 15.6672 73.5088 15.8445 73.7602C16.0296 74.0125 16.1197 74.3192 16.1149 74.6821C16.1091 75.2161 15.8746 75.6333 15.4124 75.932C14.9502 76.2244 14.2738 76.3661 13.3824 76.3572L9.87473 76.3234ZM11.4474 75.2509L13.2787 75.2687C13.6857 75.2731 13.9928 75.2161 14.2012 75.0993C14.4163 74.9772 14.5248 74.7819 14.5277 74.5145C14.5306 74.2532 14.4269 74.0589 14.2147 73.9314C14.0093 73.7995 13.7041 73.7308 13.2971 73.7263L11.3495 73.7076L11.3611 72.6556L13.0374 72.6717C13.4192 72.6761 13.7099 72.6191 13.9114 72.5023C14.1198 72.3793 14.2254 72.1929 14.2283 71.9433C14.2312 71.6999 14.1304 71.518 13.925 71.3968C13.7254 71.2702 13.4357 71.2051 13.0549 71.2006L11.4948 71.1855L11.4474 75.2509ZM17.2834 76.3965L17.3561 70.1558L20.67 70.1888C21.5227 70.1968 22.1602 70.3519 22.5837 70.6533C23.0129 70.9546 23.2242 71.3486 23.2184 71.8363C23.2145 72.1635 23.1244 72.4479 22.947 72.6895C22.7697 72.9258 22.5284 73.1076 22.2242 73.2351C21.919 73.3626 21.5692 73.425 21.1748 73.4206L21.3638 73.0568C21.7901 73.0613 22.167 73.1308 22.4945 73.2645C22.823 73.3929 23.0759 73.5819 23.2532 73.8333C23.4383 74.0847 23.5284 74.3923 23.5236 74.7543C23.5178 75.2892 23.2833 75.7064 22.8211 76.0051C22.3589 76.2975 21.6825 76.4393 20.7911 76.4303L17.2834 76.3965ZM18.8561 75.324L20.6874 75.3418C21.0944 75.3462 21.4015 75.2892 21.6099 75.1724C21.825 75.0503 21.9335 74.855 21.9364 74.5876C21.9393 74.3263 21.8356 74.132 21.6234 74.0045C21.418 73.8717 21.1128 73.8039 20.7058 73.7995L18.7582 73.7807L18.7698 72.7287L20.4461 72.7448C20.8279 72.7483 21.1186 72.6922 21.3201 72.5754C21.5285 72.4524 21.6341 72.266 21.637 72.0164C21.6399 71.773 21.5391 71.5911 21.3337 71.4699C21.1351 71.3433 20.8444 71.2782 20.4636 71.2738L18.9035 71.2586L18.8561 75.324ZM29.4711 76.5159L26.6175 70.2467L28.3132 70.2637L30.8073 75.8161L29.8093 75.8063L32.47 70.3047L34.0301 70.3198L31.0214 76.5311L29.4711 76.5159ZM37.6055 76.7031C37.0881 76.6978 36.6114 76.6131 36.1744 76.4482C35.7364 76.2841 35.3585 76.0541 35.0388 75.7599C34.7258 75.4657 34.4806 75.1153 34.3043 74.7097C34.1347 74.3032 34.0533 73.8601 34.0582 73.3787L34.0621 73.0755L39.808 73.1317L39.7964 74.1124L35.126 74.0669L35.6356 73.5989C35.6318 73.8966 35.6744 74.1641 35.7616 74.403C35.8556 74.6411 35.9893 74.8479 36.1618 75.0217C36.3343 75.1902 36.5426 75.3195 36.7868 75.4113C37.0309 75.5032 37.3081 75.5504 37.6181 75.5531C37.9282 75.5566 38.2073 75.5147 38.4534 75.4274C38.6995 75.3409 38.9078 75.2152 39.0784 75.0503C39.2547 74.88 39.3894 74.6794 39.4824 74.4485C39.5755 74.2176 39.6239 73.9564 39.6268 73.6648L39.6297 73.433C39.6326 73.154 39.5813 72.8946 39.4737 72.6565C39.3739 72.4176 39.2305 72.2108 39.0454 72.0369C38.8603 71.8622 38.6385 71.7267 38.3817 71.6286C38.1239 71.5314 37.8468 71.4815 37.5494 71.4779C37.3168 71.4761 37.0813 71.5002 36.841 71.551C36.6017 71.6027 36.372 71.6803 36.1511 71.7855C35.936 71.8898 35.7442 72.0253 35.5746 72.1894L34.6454 71.2443C34.8605 71.0446 35.1211 70.869 35.4263 70.7174C35.7384 70.5659 36.0755 70.45 36.4389 70.3706C36.8013 70.2851 37.1802 70.244 37.5736 70.2476C38.1094 70.253 38.5997 70.3385 39.0435 70.5035C39.4941 70.6622 39.8826 70.8886 40.2082 71.1837C40.5405 71.4779 40.7915 71.822 40.962 72.2161C41.1384 72.6102 41.2237 73.039 41.2178 73.5026C41.213 73.9778 41.1171 74.411 40.932 74.8015C40.7528 75.192 40.4998 75.5308 40.1733 75.8196C39.8477 76.1014 39.4669 76.3207 39.0319 76.4767C38.5978 76.6327 38.122 76.7085 37.6055 76.7031ZM47.3388 76.7994C46.7962 76.7941 46.2768 76.7237 45.7807 76.5881C45.2856 76.4464 44.8864 76.2672 44.586 76.0497L45.1315 74.9674C45.4193 75.1608 45.7604 75.3213 46.1528 75.4506C46.552 75.5727 46.9551 75.636 47.3621 75.6405C47.6721 75.6431 47.9211 75.6191 48.1091 75.5674C48.3029 75.5103 48.4463 75.431 48.5384 75.3311C48.6295 75.2312 48.676 75.1153 48.6779 74.9843C48.6799 74.8185 48.6101 74.6865 48.4696 74.5902C48.3281 74.4877 48.1421 74.4057 47.9095 74.3442C47.6779 74.2764 47.4202 74.2149 47.1373 74.1578C46.8601 74.0963 46.5801 74.0223 46.2962 73.9359C46.02 73.8503 45.7662 73.7406 45.5346 73.6078C45.304 73.474 45.115 73.3002 44.9687 73.0845C44.8292 72.8696 44.7614 72.595 44.7652 72.2625C44.7701 71.9058 44.8767 71.5831 45.0869 71.2943C45.303 70.9992 45.6228 70.7674 46.0443 70.5989C46.4726 70.425 47.0064 70.3412 47.646 70.3475C48.0723 70.351 48.4919 70.4027 48.9047 70.5026C49.3165 70.5953 49.6798 70.7362 49.9947 70.9234L49.4977 72.0146C49.1828 71.8452 48.8678 71.7204 48.5519 71.6402C48.2361 71.5537 47.927 71.5091 47.6237 71.5064C47.3194 71.5029 47.0704 71.5332 46.8757 71.5965C46.6819 71.6607 46.5413 71.7454 46.4561 71.8515C46.3708 71.9513 46.3282 72.0699 46.3262 72.2063C46.3243 72.3668 46.3941 72.4987 46.5346 72.6012C46.676 72.6975 46.8621 72.7769 47.0936 72.8384C47.3262 72.8999 47.5801 72.9623 47.8572 73.0238C48.1411 73.0862 48.4211 73.1576 48.6983 73.2378C48.9812 73.3171 49.2389 73.4241 49.4695 73.557C49.7002 73.6898 49.8862 73.8645 50.0257 74.0794C50.1711 74.2951 50.2428 74.5662 50.2389 74.8933C50.235 75.2437 50.1246 75.5638 49.9075 75.8526C49.6915 76.1415 49.3688 76.3733 48.9405 76.5471C48.519 76.7219 47.9851 76.8057 47.3388 76.7994ZM50.3988 76.7228L53.4946 70.5115L55.045 70.5275L58.0052 76.7976L56.3579 76.7807L53.9413 71.247L54.5615 71.2533L52.0073 76.7379L50.3988 76.7228ZM51.9259 75.3997L52.3551 74.3076L55.8434 74.3424L56.2571 75.4425L51.9259 75.3997ZM61.8878 76.943C61.351 76.9376 60.8578 76.8556 60.4072 76.696C59.9635 76.5311 59.5759 76.302 59.2435 76.0069C58.917 75.7127 58.6631 75.3685 58.48 74.9745C58.3036 74.5804 58.2183 74.1489 58.2241 73.6791C58.229 73.2093 58.3249 72.7795 58.51 72.3891C58.7019 71.9986 58.9674 71.6598 59.3065 71.3718C59.6466 71.0839 60.0429 70.8645 60.4964 70.7148C60.9508 70.5588 61.4489 70.483 61.9915 70.4883C62.5922 70.4946 63.131 70.5917 63.6068 70.7807C64.0883 70.9698 64.4924 71.2417 64.818 71.5956L63.8005 72.4408C63.5573 72.2009 63.2918 72.0226 63.0021 71.9076C62.7134 71.7855 62.3975 71.7231 62.0545 71.7195C61.725 71.716 61.4246 71.7605 61.1524 71.8532C60.8801 71.946 60.6427 72.0806 60.4402 72.2562C60.2445 72.4327 60.0894 72.6422 59.977 72.8847C59.8714 73.1272 59.8162 73.3974 59.8123 73.6942C59.8094 73.9858 59.8578 74.2541 59.9586 74.4984C60.0652 74.7436 60.2144 74.9584 60.4063 75.1448C60.6049 75.3249 60.8355 75.4639 61.0991 75.562C61.3694 75.6592 61.6659 75.71 61.9886 75.7136C62.2987 75.7162 62.6 75.6743 62.8917 75.5887C63.1901 75.496 63.4789 75.3418 63.7599 75.1243L64.6387 76.1763C64.2676 76.4286 63.8354 76.6202 63.3432 76.7522C62.8568 76.8841 62.3723 76.9474 61.8878 76.943ZM63.2066 75.9748L63.2337 73.6301L64.6678 73.6443L64.6387 76.1763L63.2066 75.9748ZM61.9276 70.1585C61.4237 70.1531 61.0051 70.0274 60.6727 69.7805C60.3462 69.5335 60.1747 69.2018 60.1602 68.7855L61.1097 68.7953C61.1204 68.9914 61.2028 69.1466 61.3568 69.2607C61.5167 69.3757 61.7095 69.4336 61.9363 69.4363C62.162 69.4381 62.3568 69.3837 62.5196 69.2723C62.6824 69.1608 62.7676 69.0075 62.7763 68.8114L63.7259 68.8212C63.7017 69.2366 63.5205 69.5647 63.1814 69.8045C62.85 70.0452 62.4314 70.1629 61.9276 70.1585ZM66.0883 76.877L66.1609 70.6363L67.7307 70.6524L67.6725 75.7153L71.0726 75.7492L71.0591 76.926L66.0883 76.877ZM71.0823 76.926L74.1782 70.7157L75.7285 70.7308L78.6887 77.0009L77.0415 76.9849L74.6249 71.4512L75.245 71.4574L72.6908 76.9421L71.0823 76.926ZM72.6094 75.6039L73.0396 74.5118L76.5269 74.5457L76.9407 75.6467L72.6094 75.6039ZM79.3922 77.0081L79.4649 70.7674L80.7633 70.7807L83.5994 75.2125L82.9114 75.2063L85.8019 70.8307L87.0906 70.8432L87.0373 77.0838L85.5645 77.0687L85.6032 72.9052L85.8746 72.9079L83.5665 76.3893L82.8591 76.3822L80.584 72.8562L80.9135 72.8598L80.865 77.0223L79.3922 77.0081ZM88.6458 77.099L88.7185 70.8592L90.2882 70.8744L90.2291 75.9382L93.6301 75.9712L93.6166 77.148L88.6458 77.099ZM94.4935 77.1569L94.5662 70.9163L96.1359 70.9323L96.0632 77.1721L94.4935 77.1569ZM100.957 77.3272C100.426 77.3228 99.9333 77.2372 99.4769 77.0722C99.0263 76.9073 98.6348 76.6773 98.3025 76.3831C97.976 76.0889 97.7221 75.7448 97.539 75.3507C97.3626 74.9566 97.2773 74.5278 97.2831 74.0642C97.288 73.6006 97.3839 73.1736 97.569 72.7831C97.7608 72.3926 98.0263 72.053 98.3655 71.765C98.7056 71.4779 99.1019 71.2559 99.5563 71.0999C100.01 70.9439 100.502 70.8681 101.031 70.8735C101.568 70.8788 102.057 70.9635 102.501 71.1284C102.952 71.2934 103.34 71.5234 103.666 71.8176C103.998 72.1064 104.256 72.4479 104.439 72.842C104.621 73.236 104.71 73.6675 104.704 74.1373C104.7 74.6009 104.601 75.0307 104.409 75.4265C104.217 75.817 103.952 76.1566 103.612 76.4446C103.279 76.7263 102.886 76.9456 102.432 77.1017C101.985 77.2577 101.492 77.3326 100.957 77.3272ZM103.16 78.6779C102.894 78.6752 102.643 78.6458 102.405 78.5905C102.173 78.5343 101.941 78.4461 101.71 78.3248C101.486 78.2036 101.248 78.0404 100.999 77.8363C100.756 77.6321 100.49 77.3798 100.204 77.0794L101.855 76.7121C102.027 76.9341 102.186 77.1106 102.333 77.2434C102.481 77.3754 102.621 77.469 102.757 77.5234C102.898 77.5786 103.047 77.6072 103.202 77.608C103.614 77.6125 103.985 77.4618 104.311 77.1561L105 77.929C104.535 78.4354 103.922 78.685 103.16 78.6779ZM100.971 76.0978C101.274 76.1005 101.552 76.0559 101.805 75.9632C102.065 75.8705 102.293 75.7358 102.488 75.5593C102.684 75.3828 102.835 75.1733 102.942 74.9308C103.054 74.6821 103.112 74.4128 103.115 74.1213C103.119 73.8244 103.068 73.5534 102.96 73.3082C102.86 73.0639 102.714 72.8518 102.522 72.6708C102.33 72.4907 102.106 72.3516 101.849 72.2544C101.598 72.1573 101.321 72.1064 101.018 72.1038C100.713 72.1002 100.432 72.1457 100.173 72.2375C99.9129 72.3302 99.6852 72.4648 99.4895 72.6414C99.3005 72.8179 99.1494 73.0274 99.036 73.2699C98.9304 73.5124 98.8752 73.7825 98.8723 74.0794C98.8684 74.3709 98.9168 74.6419 99.0176 74.8925C99.1242 75.1367 99.2705 75.3498 99.4556 75.5299C99.6474 75.71 99.8722 75.8491 100.129 75.9462C100.387 76.0443 100.667 76.0942 100.971 76.0978ZM2.06875 83.2184L5.33416 83.2505L5.32059 84.3738L2.05615 84.3417L2.06875 83.2184ZM2.15498 85.7869L5.84673 85.8235L5.83316 86.9825L0.581385 86.9307L0.65404 80.6901L5.77987 80.7409L5.7663 81.8999L2.20052 81.8642L2.15498 85.7869ZM7.08216 86.994L7.15484 80.7542L8.72456 80.7694L8.66545 85.8333L12.0665 85.8663L12.053 87.0431L7.08216 86.994ZM12.9299 87.052L13.0026 80.8122L14.301 80.8247L17.1371 85.2573L16.4492 85.2502L19.3386 80.8746L20.6273 80.8871L20.574 87.1278L19.1012 87.1126L19.14 82.9492L19.4113 82.9519L17.1032 86.4333L16.3959 86.4261L14.1217 82.9001L14.4512 82.9037L14.4027 87.0663L12.9299 87.052ZM22.1835 87.1429L22.2562 80.9031L23.8259 80.9183L23.7668 85.9822L27.1678 86.0151L27.1543 87.1919L22.1835 87.1429ZM31.0747 87.3382C30.5583 87.3328 30.0815 87.2481 29.6435 87.0832C29.2065 86.9183 28.8277 86.6882 28.5079 86.394C28.1949 86.0998 27.9508 85.7495 27.7744 85.3438C27.6049 84.9382 27.5225 84.4942 27.5283 84.0128L27.5322 83.7097L33.2772 83.7667L33.2655 84.7474L28.5961 84.701L29.1048 84.2339C29.1019 84.5308 29.1436 84.7991 29.2317 85.0371C29.3257 85.2761 29.4585 85.482 29.6309 85.6567C29.8034 85.8243 30.0118 85.9545 30.2569 86.0463C30.5011 86.1373 30.7782 86.1845 31.0883 86.1881C31.3984 86.1908 31.6765 86.1489 31.9235 86.0624C32.1697 85.9759 32.378 85.8502 32.5475 85.6853C32.7239 85.5141 32.8586 85.3135 32.9516 85.0826C33.0446 84.8517 33.0931 84.5905 33.097 84.2999L33.0999 84.068C33.1028 83.789 33.0504 83.5296 32.9438 83.2906C32.8431 83.0517 32.7006 82.8458 32.5146 82.671C32.3295 82.4972 32.1086 82.3608 31.8509 82.2636C31.5941 82.1655 31.317 82.1156 31.0195 82.1129C30.7869 82.1103 30.5505 82.1352 30.3112 82.186C30.0719 82.2369 29.8412 82.3153 29.6203 82.4196C29.4062 82.5248 29.2143 82.6594 29.0438 82.8244L28.1155 81.8793C28.3306 81.6788 28.5913 81.5031 28.8965 81.3516C29.2085 81.2 29.5457 81.085 29.9081 81.0048C30.2714 80.9192 30.6493 80.8791 31.0437 80.8826C31.5795 80.888 32.0698 80.9727 32.5136 81.1376C32.9642 81.2972 33.3518 81.5236 33.6783 81.8178C34.0107 82.112 34.2616 82.4571 34.4312 82.8511C34.6076 83.2443 34.6928 83.6731 34.688 84.1367C34.6822 84.6128 34.5872 85.0452 34.4012 85.4357C34.2219 85.8261 33.97 86.1658 33.6435 86.4538C33.3169 86.7355 32.9371 86.9548 32.502 87.1108C32.0669 87.2677 31.5912 87.3426 31.0747 87.3382ZM35.8372 87.2775L35.9099 81.0377L38.8458 81.0663C39.4524 81.0725 39.9747 81.1697 40.4117 81.3587C40.8496 81.5406 41.1849 81.8027 41.4204 82.1441C41.6558 82.4847 41.7701 82.8903 41.7643 83.3602C41.7595 83.8238 41.6355 84.2232 41.3923 84.5602C41.149 84.89 40.807 85.1423 40.3661 85.3162C39.9243 85.49 39.4001 85.5747 38.7935 85.5685L36.7296 85.548L37.434 84.9221L37.4069 87.2936L35.8372 87.2775ZM40.1491 87.3203L38.4796 85.0389L40.1558 85.0559L41.8448 87.3373L40.1491 87.3203ZM37.4321 85.0826L36.7432 84.3979L38.7198 84.4175C39.2034 84.422 39.5667 84.331 39.808 84.1429C40.0493 83.9495 40.1714 83.6829 40.1752 83.3441C40.1801 82.9991 40.0638 82.7308 39.8264 82.5382C39.59 82.3456 39.2295 82.2467 38.745 82.2422L36.7684 82.2226L37.4738 81.5432L37.4321 85.0826ZM42.962 87.348L43.0347 81.1073L44.6044 81.1233L44.5317 87.3631L42.962 87.348ZM43.8263 80.5626C43.587 80.5608 43.3912 80.4868 43.2372 80.3433C43.0909 80.1988 43.0182 80.0169 43.0211 79.7967C43.023 79.5828 43.0996 79.4054 43.2498 79.2645C43.4067 79.1227 43.6044 79.0541 43.8437 79.0559C44.0763 79.0586 44.2691 79.1317 44.4222 79.2761C44.5753 79.4196 44.6509 79.5988 44.649 79.8128C44.6461 80.033 44.5666 80.2131 44.4096 80.3548C44.2526 80.4957 44.0589 80.5652 43.8263 80.5626ZM50.3785 83.9887L53.6342 84.0208L53.6206 85.1798L50.3649 85.1477L50.3785 83.9887ZM50.455 87.422L48.8853 87.4068L48.9579 81.1661L54.0838 81.2169L54.0702 82.3759L50.5141 82.3403L50.455 87.422ZM53.9074 87.4558L57.0033 81.2455L58.5536 81.2606L61.5138 87.5307L59.8666 87.5147L57.45 81.981L58.0701 81.9872L55.5159 87.4719L53.9074 87.4558ZM55.4345 86.1337L55.8638 85.0416L59.352 85.0755L59.7658 86.1765L55.4345 86.1337ZM63.6387 86.1257L63.5709 84.4577L66.8538 81.3427L68.5979 81.3596L65.6377 84.2285L64.7559 85.0755L63.6387 86.1257ZM62.2173 87.5379L62.2899 81.2972L63.85 81.3132L63.7773 87.553L62.2173 87.5379ZM66.8586 87.5833L64.4779 84.841L65.5166 83.8256L68.69 87.6012L66.8586 87.5833ZM72.3071 87.7438C71.3449 87.7349 70.5949 87.4808 70.0581 86.9825C69.5213 86.4832 69.2578 85.7762 69.2684 84.8615L69.3091 81.3667L70.8788 81.3819L70.8391 84.8232C70.8323 85.4178 70.9593 85.8466 71.2209 86.1105C71.4835 86.3753 71.8527 86.509 72.3313 86.5144C72.809 86.5189 73.1821 86.3914 73.4495 86.1328C73.7179 85.8743 73.8545 85.4472 73.8623 84.8526L73.902 81.4122L75.4524 81.4274L75.4117 84.9221C75.401 85.8368 75.121 86.5385 74.5735 87.0261C74.0251 87.5147 73.2693 87.7536 72.3071 87.7438ZM73.3759 80.8541C73.1879 80.8523 73.0309 80.7944 72.903 80.6803C72.7751 80.5652 72.7121 80.4164 72.7141 80.2318C72.716 80.0482 72.7829 79.9002 72.9127 79.7887C73.0435 79.6764 73.2024 79.622 73.3894 79.6238C73.5774 79.6256 73.7344 79.6835 73.8623 79.7976C73.997 79.9118 74.0629 80.0615 74.0609 80.2452C74.059 80.4297 73.9892 80.5777 73.8526 80.6892C73.7218 80.8006 73.5629 80.8559 73.3759 80.8541ZM71.4186 80.8345C71.2306 80.8327 71.0697 80.7748 70.936 80.6606C70.8081 80.5465 70.7451 80.3967 70.7471 80.2131C70.749 80.0285 70.8159 79.8806 70.9467 79.7691C71.0833 79.6577 71.2451 79.6024 71.4331 79.6042C71.6201 79.606 71.7771 79.6639 71.905 79.7789C72.0329 79.893 72.0959 80.0419 72.0939 80.2265C72.092 80.4101 72.0251 80.5581 71.8953 80.6695C71.7645 80.7819 71.6056 80.8363 71.4186 80.8345ZM76.931 87.6832L77.0037 81.4425L78.5734 81.4577L78.5143 86.5215L81.9154 86.5554L81.9008 87.7313L76.931 87.6832ZM83.549 87.7483L83.6082 82.6844L81.4377 82.663L81.4512 81.4862L87.3619 81.5441L87.3484 82.7209L85.1779 82.6996L85.1188 87.7634L83.549 87.7483ZM91.1961 87.9301C90.6797 87.9257 90.2029 87.8401 89.765 87.6752C89.328 87.5111 88.9491 87.2811 88.6303 86.9869C88.3163 86.6927 88.0722 86.3423 87.8958 85.9367C87.7262 85.5302 87.6439 85.0871 87.6497 84.6056L87.6536 84.3025L93.3986 84.3587L93.3879 85.3394L88.7175 85.2939L89.2272 84.8258C89.2233 85.1236 89.265 85.3911 89.3531 85.63C89.4471 85.868 89.5809 86.0749 89.7524 86.2487C89.9248 86.4172 90.1341 86.5465 90.3783 86.6383C90.6225 86.7302 90.8996 86.7774 91.2097 86.7801C91.5198 86.7836 91.7979 86.7417 92.0449 86.6553C92.2911 86.5679 92.4994 86.4422 92.6689 86.2773C92.8453 86.107 92.98 85.9064 93.074 85.6755C93.167 85.4446 93.2145 85.1834 93.2184 84.8918L93.2213 84.66C93.2242 84.381 93.1728 84.1224 93.0652 83.8835C92.9645 83.6446 92.822 83.4377 92.637 83.2639C92.4509 83.0892 92.23 82.9536 91.9723 82.8565C91.7155 82.7584 91.4384 82.7085 91.1409 82.7049C90.9083 82.7031 90.6729 82.7272 90.4326 82.778C90.1932 82.8297 89.9626 82.9073 89.7417 83.0125C89.5275 83.1168 89.3357 83.2523 89.1652 83.4172L88.2369 82.4713C88.452 82.2716 88.7126 82.096 89.0179 81.9444C89.3299 81.7929 89.6671 81.677 90.0295 81.5976C90.3928 81.512 90.7707 81.471 91.1651 81.4746C91.7009 81.4799 92.1912 81.5655 92.635 81.7305C93.0856 81.8892 93.4732 82.1156 93.7997 82.4107C94.1321 82.7049 94.383 83.049 94.5526 83.4431C94.729 83.8371 94.8152 84.266 94.8094 84.7296C94.8036 85.2047 94.7086 85.638 94.5226 86.0285C94.3443 86.419 94.0914 86.7587 93.7648 87.0466C93.4383 87.3284 93.0585 87.5477 92.6234 87.7037C92.1893 87.8597 91.7135 87.9355 91.1961 87.9301ZM98.1862 87.9997C97.6436 87.9943 97.1242 87.923 96.6281 87.7875C96.133 87.6458 95.7338 87.4665 95.4334 87.2499L95.9789 86.1676C96.2667 86.3611 96.6078 86.5215 97.0002 86.6499C97.3994 86.7729 97.8025 86.8362 98.2095 86.8407C98.5196 86.8434 98.7686 86.8193 98.9566 86.7676C99.1504 86.7096 99.2938 86.6312 99.3858 86.5313C99.4769 86.4306 99.5234 86.3156 99.5254 86.1845C99.5273 86.0187 99.4575 85.8868 99.316 85.7905C99.1756 85.688 98.9895 85.6059 98.757 85.5444C98.5254 85.4767 98.2676 85.4143 97.9847 85.3581C97.7075 85.2957 97.4266 85.2217 97.1436 85.1361C96.8665 85.0496 96.6126 84.9409 96.382 84.8071C96.1514 84.6743 95.9625 84.5004 95.8161 84.2847C95.6766 84.0698 95.6088 83.7952 95.6126 83.4627C95.6165 83.1061 95.7241 82.7834 95.9343 82.4936C96.1504 82.1985 96.4702 81.9667 96.8917 81.7991C97.32 81.6253 97.8539 81.5406 98.4934 81.5468C98.9197 81.5513 99.3393 81.603 99.7521 81.7019C100.164 81.7956 100.527 81.9355 100.842 82.1227L100.344 83.2149C100.03 83.0455 99.7153 82.9207 99.3994 82.8404C99.0835 82.7539 98.7744 82.7094 98.4701 82.7058C98.1668 82.7031 97.9178 82.7334 97.7231 82.7967C97.5283 82.86 97.3888 82.9447 97.3035 83.0508C97.2182 83.1516 97.1756 83.2701 97.1737 83.4065C97.1717 83.567 97.2415 83.6981 97.382 83.8006C97.5235 83.8978 97.7095 83.9762 97.9411 84.0386C98.1736 84.1001 98.4275 84.1617 98.7046 84.2241C98.9885 84.2865 99.2686 84.3578 99.5457 84.4371C99.8286 84.5174 100.085 84.6244 100.317 84.7572C100.548 84.89 100.734 85.0639 100.873 85.2796C101.019 85.4954 101.09 85.7664 101.086 86.0927C101.082 86.444 100.972 86.764 100.755 87.0529C100.539 87.3417 100.216 87.5735 99.7879 87.7474C99.3655 87.9221 98.8316 88.0059 98.1862 87.9997ZM102.138 87.931L102.21 81.6912L103.78 81.7064L103.707 87.9471L102.138 87.931ZM103.001 81.1456C102.763 81.1438 102.566 81.0698 102.413 80.9263C102.266 80.7819 102.194 80.6 102.197 80.3798C102.199 80.1658 102.275 79.9884 102.425 79.8476C102.582 79.7067 102.78 79.6372 103.018 79.6389C103.251 79.6416 103.445 79.7147 103.598 79.8592C103.751 80.0036 103.827 80.1819 103.824 80.3959C103.822 80.6161 103.742 80.7961 103.585 80.9379C103.428 81.0788 103.234 81.1483 103.001 81.1456Z" fill="#006650"/>
<mask id="mask0_200_1094" style="mask-type:luminance" maskUnits="userSpaceOnUse" x="14" y="0" width="76" height="60">
<path d="M89.38 0H14V59.63H89.38V0Z" fill="white"/>
</mask>
<g mask="url(#mask0_200_1094)">
<path d="M22.5379 47.0692L24.9649 49.5507L22.2984 49.5222L20.6912 47.7723C20.2615 47.8633 19.7853 47.9129 19.3102 47.9078C16.2897 47.8755 13.8429 45.8302 13.8731 42.9656C13.9034 40.1147 16.3938 38.1223 19.4133 38.1547C22.4641 38.1874 24.8655 40.2321 24.8352 43.083C24.8163 44.8155 23.9114 46.2243 22.5379 47.0692ZM19.3281 46.2026C21.2591 46.2233 22.607 44.9962 22.6278 43.0594C22.6477 41.1226 21.3273 39.8943 19.3953 39.8735C17.4483 39.8527 16.1013 41.0524 16.0805 42.9893C16.0597 44.9261 17.3801 46.1816 19.3281 46.2026Z" fill="#006650"/>
<path d="M32.9889 46.1444L28.7275 46.0988L28.0024 47.9057L25.7487 47.8816L29.6986 38.3877L32.1976 38.4144L35.944 47.9908L33.6751 47.9665L32.9889 46.1444ZM30.9169 40.6104L29.3257 44.5767L32.4219 44.6099L30.9169 40.6104Z" fill="#006650"/>
<path d="M41.5022 38.5273C44.0778 38.5549 45.3509 39.892 45.3339 41.4879C45.3216 42.6473 44.588 43.8126 42.8671 44.2035L45.3869 48.0915L42.9022 48.0649L40.5812 44.3292L39.5684 44.3184L39.5287 48.0288L37.3828 48.0057L37.485 38.4843L41.5022 38.5273ZM41.4076 40.1087L39.6148 40.0895L39.5845 42.8858L41.3773 42.905C42.5737 42.9178 43.1161 42.3641 43.1256 41.5047C43.135 40.6595 42.604 40.1215 41.4076 40.1087Z" fill="#006650"/>
<path d="M53.7904 46.3675L49.5281 46.3219L48.8039 48.1287L46.5502 48.1046L50.5002 38.6107L53 38.6374L56.7456 48.2138L54.4757 48.1896L53.7904 46.3675ZM51.7184 40.8334L50.1272 44.7999L53.2234 44.833L51.7184 40.8334Z" fill="#006650"/>
<path d="M62.7997 48.2779L58.1844 48.2284L58.2866 38.707L62.7022 38.7543C64.9399 38.7782 66.1704 39.828 66.1553 41.2469C66.143 42.4063 65.3535 43.1214 64.3066 43.4101C65.5163 43.6143 66.3645 44.6189 66.3531 45.7374C66.338 47.252 65.0223 48.3018 62.7997 48.2779ZM62.3804 40.2929L60.4172 40.2719L60.3908 42.6589L62.3539 42.6799C63.3658 42.6908 63.9526 42.2879 63.9612 41.5103C63.9687 40.7459 63.3904 40.3037 62.3804 40.2929ZM62.4912 44.1546L60.3756 44.1318L60.3481 46.6966L62.5101 46.7197C63.5532 46.7309 64.1713 46.2872 64.1798 45.4824C64.1874 44.6641 63.5343 44.1657 62.4912 44.1546Z" fill="#006650"/>
<path d="M74.6222 46.5904L70.3599 46.5447L69.6348 48.3517L67.382 48.3276L71.332 38.8336L73.8309 38.8604L77.5774 48.4368L75.3085 48.4126L74.6222 46.5904ZM72.5512 41.0564L70.961 45.0228L74.0571 45.056L72.5512 41.0564Z" fill="#006650"/>
<path d="M89.009 41.9009L86.5394 41.8744C86.0586 41.0644 85.1735 40.6319 84.0386 40.6198C82.1218 40.5993 80.7749 41.799 80.755 43.6949C80.7342 45.6317 82.0707 46.8465 84.0632 46.8678C85.7197 46.8856 86.7865 46.0511 87.1234 44.704L83.4442 44.6646L83.4593 43.2047L89.255 43.2668L89.2371 44.9309C88.7865 46.8631 86.8205 48.6159 83.9686 48.5853C80.8572 48.552 78.5164 46.5216 78.5476 43.6706C78.5779 40.8197 80.9604 38.8261 84.0575 38.8593C86.4485 38.8862 88.3388 39.9839 89.009 41.9009ZM83.9411 38.368C82.4692 38.3523 81.5113 37.5371 81.5255 36.2276L81.5283 35.9549L82.6632 35.9671C82.6576 36.5538 82.9595 36.9117 83.9553 36.9224C84.9529 36.9331 85.2625 36.5818 85.2682 35.995L86.4183 36.0072L86.4154 36.2936C86.4012 37.6032 85.4433 38.3842 83.9411 38.368Z" fill="#006650"/>
<path d="M13.8949 51.7568L15.5628 51.7746L15.5136 56.3513C15.5022 57.3685 16.1165 57.9049 17.1748 57.9161C18.2463 57.9277 18.8719 57.4046 18.8823 56.3874L18.9316 51.8108L20.6107 51.8288L20.5625 56.3948C20.5416 58.3442 18.96 59.2811 17.1369 59.2616C15.3157 59.2421 13.8258 58.2728 13.8467 56.323L13.8949 51.7568Z" fill="#006650"/>
<path d="M29.3266 51.9117L29.2481 59.3169L27.5802 59.299L23.8612 54.1839L23.8073 59.2586L22.1404 59.2407L22.2199 51.8355L23.8868 51.8534L27.6058 56.9789L27.6597 51.8938L29.3266 51.9117Z" fill="#006650"/>
<path d="M30.9689 51.9397L32.6358 51.9575L32.5563 59.3522L30.8894 59.3344L30.9689 51.9397ZM31.0314 50.5312C31.0361 50.1394 31.3845 49.8252 31.8246 49.8299C32.2657 49.8346 32.6188 50.1564 32.615 50.5482C32.6102 50.9401 32.2505 51.2436 31.8104 51.2388C31.3693 51.2341 31.0276 50.9231 31.0314 50.5312Z" fill="#006650"/>
<path d="M39.9707 52.0359L41.7445 52.055L38.6171 59.417L36.5934 59.3953L33.624 51.9681L35.4102 51.9871L37.6346 57.8917L39.9707 52.0359Z" fill="#006650"/>
<path d="M47.5545 53.3146L44.3987 53.2808L44.3788 55.1351L47.1768 55.165L47.1645 56.3412L44.3665 56.3112L44.3457 58.271L47.5005 58.3048L47.4873 59.512L42.6655 59.4604L42.745 52.0552L47.5668 52.1069L47.5545 53.3146Z" fill="#006650"/>
<path d="M52.1983 52.167C54.1984 52.1885 55.1875 53.2269 55.1752 54.4663C55.1648 55.3667 54.595 56.2717 53.2584 56.5754L55.2159 59.5948L53.2869 59.5742L51.4836 56.6731L50.6971 56.6648L50.6668 59.5461L48.9999 59.5283L49.0794 52.1337L52.1983 52.167ZM52.1264 53.3953L50.733 53.3804L50.7094 55.5519L52.1018 55.5668C53.0313 55.5768 53.4525 55.1473 53.4601 54.4797C53.4676 53.8233 53.0549 53.4052 52.1264 53.3953Z" fill="#006650"/>
<path d="M59.5 59.7153C57.7735 59.6967 56.4493 58.8771 56.4398 57.4791L58.226 57.4982C58.2667 58.0916 58.704 58.4889 59.4764 58.4971C60.262 58.5056 60.7315 58.1398 60.7362 57.6101C60.7542 56.0105 56.4559 56.9284 56.4975 54.2482C56.5117 52.9132 57.7347 52.1214 59.4499 52.1397C61.1527 52.158 62.3094 52.9436 62.404 54.2799L60.5696 54.2603C60.5393 53.7723 60.103 53.3865 59.3893 53.3681C58.7342 53.3401 58.243 53.6204 58.2364 54.2247C58.2203 55.7076 62.4921 54.9273 62.4646 57.5336C62.4523 58.6979 61.3931 59.7355 59.5 59.7153Z" fill="#006650"/>
<path d="M63.9621 52.293L65.628 52.3108L65.5485 59.7055L63.8826 59.6876L63.9621 52.293ZM64.0246 50.8846C64.0284 50.4927 64.3786 50.1784 64.8187 50.1831C65.2589 50.1879 65.6129 50.5096 65.6081 50.9015C65.6044 51.2933 65.2438 51.5969 64.8027 51.5922C64.3625 51.5874 64.0208 51.2763 64.0246 50.8846Z" fill="#006650"/>
<path d="M66.8311 52.3238L72.9279 52.3891L72.9156 53.5864L70.7006 53.5627L70.6344 59.7601L68.9675 59.7422L69.0337 53.5448L66.8198 53.5211L66.833 52.3238H66.8311Z" fill="#006650"/>
<path d="M78.9518 53.651L75.7959 53.6172L75.7761 55.4714L78.5741 55.5014L78.5618 56.6774L75.7638 56.6475L75.743 58.6074L78.8978 58.6411L78.8846 59.8483L74.0628 59.7967L74.1423 52.3915L78.9641 52.4431L78.9518 53.651Z" fill="#006650"/>
<path d="M80.0356 52.4651L86.1314 52.5303L86.1191 53.7276L83.9042 53.7039L83.8389 59.9012L82.172 59.8834L82.2382 53.686L80.0243 53.6624L80.0366 52.4651H80.0356Z" fill="#006650"/>
<path d="M87.3468 52.5434L89.0127 52.5613L88.9332 59.956L87.2673 59.9381L87.3468 52.5434ZM87.4093 51.135C87.4131 50.7432 87.7614 50.4289 88.2024 50.4336C88.6426 50.4383 88.9976 50.7601 88.9928 51.152C88.9891 51.5437 88.6284 51.8474 88.1873 51.8427C87.7472 51.8379 87.4055 51.5268 87.4093 51.135Z" fill="#006650"/>
<path d="M62.6842 22.2893C62.6559 24.8664 61.4935 27.2847 59.4101 29.1001C57.3249 30.9154 54.5817 31.9002 51.6824 31.8692C48.786 31.8382 46.0646 30.7948 44.0191 28.9352C41.9736 27.0756 40.8642 24.6323 40.8907 22.0559L40.9807 13.6652L38.3435 14.9635L38.3407 14.9666L38.264 22.0277C38.2309 25.2296 39.6063 28.2626 42.143 30.569C44.6807 32.8754 48.0618 34.168 51.6578 34.2065C55.2557 34.2451 58.6652 33.0252 61.2474 30.7736C63.8324 28.5221 65.2769 25.5191 65.311 22.3174L65.3867 15.2556L62.7742 13.898L62.6842 22.2893Z" fill="#006650"/>
<path d="M51.9948 3.08505L38.3956 9.78406L38.3682 12.6014L51.9645 5.90366L56.8658 8.4491L60.4286 10.302L65.4151 12.8893L65.4454 10.07L51.9948 3.08505Z" fill="#006650"/>
<path d="M65.2163 0H38.1656V2.48468H65.2163V0Z" fill="#006650"/>
<path d="M45.8005 26.4572L44.2766 27.4687L44.268 28.2189L47.4684 28.2531L47.4769 27.4408L45.8081 27.4229L46.5057 26.9989C47.1106 26.6196 47.4485 26.3252 47.4551 25.7494V25.7389C47.4627 25.0607 46.855 24.5861 45.9775 24.5766C45.1976 24.5683 44.7612 24.8412 44.3229 25.3296L45.0726 25.8979C45.3935 25.5778 45.6093 25.4359 45.88 25.4389C46.1574 25.4418 46.3353 25.5823 46.3334 25.8139C46.3315 26.0362 46.1782 26.1991 45.8005 26.4572Z" fill="#006650"/>
<path d="M51.6805 26.4997V26.4892C51.6909 25.4714 50.9839 24.621 49.8347 24.6088C48.6856 24.5964 47.9492 25.4418 47.9369 26.4589V26.4695C47.9265 27.4873 48.6326 28.3377 49.7827 28.3499C50.9384 28.3624 51.6692 27.5176 51.6805 26.4997ZM49.0643 26.4717V26.4612C49.0699 25.8854 49.3681 25.4825 49.813 25.4873C50.2579 25.492 50.5598 25.9114 50.5541 26.487V26.4975C50.5475 27.0682 50.255 27.4706 49.8045 27.4659C49.3605 27.4616 49.0576 27.0523 49.0643 26.4717Z" fill="#006650"/>
<path d="M53.5623 26.5404L52.0393 27.5519L52.0308 28.3021L55.2311 28.3363L55.2396 27.5241L53.5699 27.5062L54.2675 27.0821C54.8724 26.7028 55.2112 26.4083 55.2178 25.8327V25.8222C55.2254 25.1441 54.6167 24.6692 53.7393 24.6599C52.9603 24.6514 52.5239 24.9244 52.0856 25.4128L52.8354 25.9811C53.1572 25.661 53.3711 25.5193 53.6428 25.522C53.9201 25.5251 54.0981 25.6655 54.0952 25.8971C54.0933 26.1194 53.941 26.2824 53.5623 26.5404Z" fill="#006650"/>
<path d="M57.5747 24.738L55.4544 26.9355L55.6258 27.6417L57.5899 27.6627L57.5823 28.362L58.6633 28.3736L58.6699 27.6744L59.1848 27.6798L59.1924 26.9346L58.6784 26.9292L58.7011 24.7502L57.5747 24.738ZM57.5965 26.9225L56.6272 26.9122L57.6079 25.8843L57.5965 26.9225Z" fill="#006650"/>
</g>
</svg>
